<?xml version="1.0" encoding="utf-8" standalone="no"?>
<!DOCTYPE svg PUBLIC "-//W3C//DTD SVG 1.1//EN"
  "http://www.w3.org/Graphics/SVG/1.1/DTD/svg11.dtd">
<svg xmlns:xlink="http://www.w3.org/1999/xlink" width="854.361301pt" height="316.383945pt" viewBox="0 0 854.361301 316.383945" xmlns="http://www.w3.org/2000/svg" version="1.1">
 <metadata>
  <rdf:RDF xmlns:dc="http://purl.org/dc/elements/1.1/" xmlns:cc="http://creativecommons.org/ns#" xmlns:rdf="http://www.w3.org/1999/02/22-rdf-syntax-ns#">
   <cc:Work>
    <dc:type rdf:resource="http://purl.org/dc/dcmitype/StillImage"/>
    <dc:date>2026-09-15T22:29:55.294563</dc:date>
    <dc:format>image/svg+xml</dc:format>
    <dc:creator>
     <cc:Agent>
      <dc:title>Matplotlib v3.11.2, https://matplotlib.org/</dc:title>
     </cc:Agent>
    </dc:creator>
   </cc:Work>
  </rdf:RDF>
 </metadata>
 <defs>
  <style type="text/css">*{stroke-linejoin: round; stroke-linecap: butt}</style>
 </defs>
 <g id="figure_1">
  <g id="patch_1">
   <path d="M 0 316.383945 
L 854.361301 316.383945 
L 854.361301 0 
L 0 0 
z
" style="fill: #ffffff"/>
  </g>
  <g id="axes_1">
   <g id="patch_2">
    <path d="M 47.620117 291.276328 
L 418.083176 291.276328 
L 418.083176 23.330625 
L 47.620117 23.330625 
z
" style="fill: #ffffff"/>
   </g>
   <g id="matplotlib.axis_1">
    <g id="xtick_1">
     <g id="line2d_1">
      <path d="M 64.459347 291.276328 
L 64.459347 23.330625 
" clip-path="url(#p44759ea021)" style="fill: none; stroke: #b0b0b0; stroke-opacity: 0.2; stroke-width: 0.8; stroke-linecap: square"/>
     </g>
     <g id="line2d_2">
      <defs>
       <path id="mc0165afa2e" d="M 0 0 
L 0 3.5 
" style="stroke: #000000; stroke-width: 0.8"/>
      </defs>
      <g>
       <use xlink:href="#mc0165afa2e" x="64.459347" y="291.276328" style="stroke: #000000; stroke-width: 0.8"/>
      </g>
     </g>
     <g id="text_1">
      <text style="font-size: 10px; font-family: 'Microsoft YaHei'; text-anchor: middle" x="64.459347" y="306.649766" transform="rotate(-0 64.459347 306.649766)">前1/3</text>
     </g>
    </g>
    <g id="xtick_2">
     <g id="line2d_3">
      <path d="M 232.851646 291.276328 
L 232.851646 23.330625 
" clip-path="url(#p44759ea021)" style="fill: none; stroke: #b0b0b0; stroke-opacity: 0.2; stroke-width: 0.8; stroke-linecap: square"/>
     </g>
     <g id="line2d_4">
      <g>
       <use xlink:href="#mc0165afa2e" x="232.851646" y="291.276328" style="stroke: #000000; stroke-width: 0.8"/>
      </g>
     </g>
     <g id="text_2">
      <text style="font-size: 10px; font-family: 'Microsoft YaHei'; text-anchor: middle" x="232.851646" y="306.610703" transform="rotate(-0 232.851646 306.610703)">中1/3</text>
     </g>
    </g>
    <g id="xtick_3">
     <g id="line2d_5">
      <path d="M 401.243946 291.276328 
L 401.243946 23.330625 
" clip-path="url(#p44759ea021)" style="fill: none; stroke: #b0b0b0; stroke-opacity: 0.2; stroke-width: 0.8; stroke-linecap: square"/>
     </g>
     <g id="line2d_6">
      <g>
       <use xlink:href="#mc0165afa2e" x="401.243946" y="291.276328" style="stroke: #000000; stroke-width: 0.8"/>
      </g>
     </g>
     <g id="text_3">
      <text style="font-size: 10px; font-family: 'Microsoft YaHei'; text-anchor: middle" x="401.243946" y="306.396445" transform="rotate(-0 401.243946 306.396445)">后1/3</text>
     </g>
    </g>
   </g>
   <g id="matplotlib.axis_2">
    <g id="ytick_1">
     <g id="line2d_7">
      <path d="M 47.620117 251.115047 
L 418.083176 251.115047 
" clip-path="url(#p44759ea021)" style="fill: none; stroke: #b0b0b0; stroke-opacity: 0.2; stroke-width: 0.8; stroke-linecap: square"/>
     </g>
     <g id="line2d_8">
      <defs>
       <path id="m67184b9a67" d="M 0 0 
L -3.5 0 
" style="stroke: #000000; stroke-width: 0.8"/>
      </defs>
      <g>
       <use xlink:href="#m67184b9a67" x="47.620117" y="251.115047" style="stroke: #000000; stroke-width: 0.8"/>
      </g>
     </g>
     <g id="text_4">
      <text style="font-size: 10px; font-family: 'Microsoft YaHei'; text-anchor: end" x="40.620117" y="255.175106" transform="rotate(-0 40.620117 255.175106)">-0.5</text>
     </g>
    </g>
    <g id="ytick_2">
     <g id="line2d_9">
      <path d="M 47.620117 210.780989 
L 418.083176 210.780989 
" clip-path="url(#p44759ea021)" style="fill: none; stroke: #b0b0b0; stroke-opacity: 0.2; stroke-width: 0.8; stroke-linecap: square"/>
     </g>
     <g id="line2d_10">
      <g>
       <use xlink:href="#m67184b9a67" x="47.620117" y="210.780989" style="stroke: #000000; stroke-width: 0.8"/>
      </g>
     </g>
     <g id="text_5">
      <text style="font-size: 10px; font-family: 'Microsoft YaHei'; text-anchor: end" x="40.620117" y="214.841047" transform="rotate(-0 40.620117 214.841047)">0.0</text>
     </g>
    </g>
    <g id="ytick_3">
     <g id="line2d_11">
      <path d="M 47.620117 170.44693 
L 418.083176 170.44693 
" clip-path="url(#p44759ea021)" style="fill: none; stroke: #b0b0b0; stroke-opacity: 0.2; stroke-width: 0.8; stroke-linecap: square"/>
     </g>
     <g id="line2d_12">
      <g>
       <use xlink:href="#m67184b9a67" x="47.620117" y="170.44693" style="stroke: #000000; stroke-width: 0.8"/>
      </g>
     </g>
     <g id="text_6">
      <text style="font-size: 10px; font-family: 'Microsoft YaHei'; text-anchor: end" x="40.620117" y="174.506989" transform="rotate(-0 40.620117 174.506989)">0.5</text>
     </g>
    </g>
    <g id="ytick_4">
     <g id="line2d_13">
      <path d="M 47.620117 130.112872 
L 418.083176 130.112872 
" clip-path="url(#p44759ea021)" style="fill: none; stroke: #b0b0b0; stroke-opacity: 0.2; stroke-width: 0.8; stroke-linecap: square"/>
     </g>
     <g id="line2d_14">
      <g>
       <use xlink:href="#m67184b9a67" x="47.620117" y="130.112872" style="stroke: #000000; stroke-width: 0.8"/>
      </g>
     </g>
     <g id="text_7">
      <text style="font-size: 10px; font-family: 'Microsoft YaHei'; text-anchor: end" x="40.620117" y="134.17293" transform="rotate(-0 40.620117 134.17293)">1.0</text>
     </g>
    </g>
    <g id="ytick_5">
     <g id="line2d_15">
      <path d="M 47.620117 89.778813 
L 418.083176 89.778813 
" clip-path="url(#p44759ea021)" style="fill: none; stroke: #b0b0b0; stroke-opacity: 0.2; stroke-width: 0.8; stroke-linecap: square"/>
     </g>
     <g id="line2d_16">
      <g>
       <use xlink:href="#m67184b9a67" x="47.620117" y="89.778813" style="stroke: #000000; stroke-width: 0.8"/>
      </g>
     </g>
     <g id="text_8">
      <text style="font-size: 10px; font-family: 'Microsoft YaHei'; text-anchor: end" x="40.620117" y="93.838872" transform="rotate(-0 40.620117 93.838872)">1.5</text>
     </g>
    </g>
    <g id="ytick_6">
     <g id="line2d_17">
      <path d="M 47.620117 49.444755 
L 418.083176 49.444755 
" clip-path="url(#p44759ea021)" style="fill: none; stroke: #b0b0b0; stroke-opacity: 0.2; stroke-width: 0.8; stroke-linecap: square"/>
     </g>
     <g id="line2d_18">
      <g>
       <use xlink:href="#m67184b9a67" x="47.620117" y="49.444755" style="stroke: #000000; stroke-width: 0.8"/>
      </g>
     </g>
     <g id="text_9">
      <text style="font-size: 10px; font-family: 'Microsoft YaHei'; text-anchor: end" x="40.620117" y="53.504813" transform="rotate(-0 40.620117 53.504813)">2.0</text>
     </g>
    </g>
    <g id="text_10">
     <text style="font-size: 10px; font-family: 'Microsoft YaHei'; text-anchor: middle" x="15.623438" y="157.303477" transform="rotate(-90 15.623438 157.303477)">分阶段斜率 × 观察时长 / 幅度尺度</text>
    </g>
   </g>
   <g id="line2d_19">
    <path d="M 64.459347 43.876383 
L 232.851646 141.747549 
L 401.243946 185.410029 
" clip-path="url(#p44759ea021)" style="fill: none; stroke: #d48544; stroke-width: 1.5; stroke-linecap: square"/>
    <defs>
     <path id="m201b0debec" d="M 0 3 
C 0.795609 3 1.55874 2.683901 2.12132 2.12132 
C 2.683901 1.55874 3 0.795609 3 0 
C 3 -0.795609 2.683901 -1.55874 2.12132 -2.12132 
C 1.55874 -2.683901 0.795609 -3 0 -3 
C -0.795609 -3 -1.55874 -2.683901 -2.12132 -2.12132 
C -2.683901 -1.55874 -3 -0.795609 -3 0 
C -3 0.795609 -2.683901 1.55874 -2.12132 2.12132 
C -1.55874 2.683901 -0.795609 3 0 3 
z
" style="stroke: #d48544"/>
    </defs>
    <g clip-path="url(#p44759ea021)">
     <use xlink:href="#m201b0debec" x="64.459347" y="43.876383" style="fill: #d48544; stroke: #d48544"/>
     <use xlink:href="#m201b0debec" x="232.851646" y="141.747549" style="fill: #d48544; stroke: #d48544"/>
     <use xlink:href="#m201b0debec" x="401.243946" y="185.410029" style="fill: #d48544; stroke: #d48544"/>
    </g>
   </g>
   <g id="line2d_20">
    <path d="M 64.459347 163.222479 
L 232.851646 66.949199 
L 401.243946 152.048628 
" clip-path="url(#p44759ea021)" style="fill: none; stroke: #377abd; stroke-width: 1.5; stroke-linecap: square"/>
    <defs>
     <path id="m2076d0dda4" d="M 0 3 
C 0.795609 3 1.55874 2.683901 2.12132 2.12132 
C 2.683901 1.55874 3 0.795609 3 0 
C 3 -0.795609 2.683901 -1.55874 2.12132 -2.12132 
C 1.55874 -2.683901 0.795609 -3 0 -3 
C -0.795609 -3 -1.55874 -2.683901 -2.12132 -2.12132 
C -2.683901 -1.55874 -3 -0.795609 -3 0 
C -3 0.795609 -2.683901 1.55874 -2.12132 2.12132 
C -1.55874 2.683901 -0.795609 3 0 3 
z
" style="stroke: #377abd"/>
    </defs>
    <g clip-path="url(#p44759ea021)">
     <use xlink:href="#m2076d0dda4" x="64.459347" y="163.222479" style="fill: #377abd; stroke: #377abd"/>
     <use xlink:href="#m2076d0dda4" x="232.851646" y="66.949199" style="fill: #377abd; stroke: #377abd"/>
     <use xlink:href="#m2076d0dda4" x="401.243946" y="152.048628" style="fill: #377abd; stroke: #377abd"/>
    </g>
   </g>
   <g id="line2d_21">
    <path d="M 64.459347 119.210978 
L 232.851646 121.023736 
L 401.243946 121.929568 
" clip-path="url(#p44759ea021)" style="fill: none; stroke: #56987c; stroke-width: 1.5; stroke-linecap: square"/>
    <defs>
     <path id="m8eee9b09ef" d="M 0 3 
C 0.795609 3 1.55874 2.683901 2.12132 2.12132 
C 2.683901 1.55874 3 0.795609 3 0 
C 3 -0.795609 2.683901 -1.55874 2.12132 -2.12132 
C 1.55874 -2.683901 0.795609 -3 0 -3 
C -0.795609 -3 -1.55874 -2.683901 -2.12132 -2.12132 
C -2.683901 -1.55874 -3 -0.795609 -3 0 
C -3 0.795609 -2.683901 1.55874 -2.12132 2.12132 
C -1.55874 2.683901 -0.795609 3 0 3 
z
" style="stroke: #56987c"/>
    </defs>
    <g clip-path="url(#p44759ea021)">
     <use xlink:href="#m8eee9b09ef" x="64.459347" y="119.210978" style="fill: #56987c; stroke: #56987c"/>
     <use xlink:href="#m8eee9b09ef" x="232.851646" y="121.023736" style="fill: #56987c; stroke: #56987c"/>
     <use xlink:href="#m8eee9b09ef" x="401.243946" y="121.929568" style="fill: #56987c; stroke: #56987c"/>
    </g>
   </g>
   <g id="line2d_22">
    <path d="M 64.459347 279.096978 
L 232.851646 138.187172 
L 401.243946 35.509975 
" clip-path="url(#p44759ea021)" style="fill: none; stroke: #996db0; stroke-width: 1.5; stroke-linecap: square"/>
    <defs>
     <path id="m750ccf8a1a" d="M 0 3 
C 0.795609 3 1.55874 2.683901 2.12132 2.12132 
C 2.683901 1.55874 3 0.795609 3 0 
C 3 -0.795609 2.683901 -1.55874 2.12132 -2.12132 
C 1.55874 -2.683901 0.795609 -3 0 -3 
C -0.795609 -3 -1.55874 -2.683901 -2.12132 -2.12132 
C -2.683901 -1.55874 -3 -0.795609 -3 0 
C -3 0.795609 -2.683901 1.55874 -2.12132 2.12132 
C -1.55874 2.683901 -0.795609 3 0 3 
z
" style="stroke: #996db0"/>
    </defs>
    <g clip-path="url(#p44759ea021)">
     <use xlink:href="#m750ccf8a1a" x="64.459347" y="279.096978" style="fill: #996db0; stroke: #996db0"/>
     <use xlink:href="#m750ccf8a1a" x="232.851646" y="138.187172" style="fill: #996db0; stroke: #996db0"/>
     <use xlink:href="#m750ccf8a1a" x="401.243946" y="35.509975" style="fill: #996db0; stroke: #996db0"/>
    </g>
   </g>
   <g id="line2d_23">
    <path d="M 64.459347 196.016758 
L 232.851646 122.615172 
L 401.243946 56.606263 
" clip-path="url(#p44759ea021)" style="fill: none; stroke: #b85b4d; stroke-width: 1.5; stroke-linecap: square"/>
    <defs>
     <path id="mf6d16f3680" d="M 0 3 
C 0.795609 3 1.55874 2.683901 2.12132 2.12132 
C 2.683901 1.55874 3 0.795609 3 0 
C 3 -0.795609 2.683901 -1.55874 2.12132 -2.12132 
C 1.55874 -2.683901 0.795609 -3 0 -3 
C -0.795609 -3 -1.55874 -2.683901 -2.12132 -2.12132 
C -2.683901 -1.55874 -3 -0.795609 -3 0 
C -3 0.795609 -2.683901 1.55874 -2.12132 2.12132 
C -1.55874 2.683901 -0.795609 3 0 3 
z
" style="stroke: #b85b4d"/>
    </defs>
    <g clip-path="url(#p44759ea021)">
     <use xlink:href="#mf6d16f3680" x="64.459347" y="196.016758" style="fill: #b85b4d; stroke: #b85b4d"/>
     <use xlink:href="#mf6d16f3680" x="232.851646" y="122.615172" style="fill: #b85b4d; stroke: #b85b4d"/>
     <use xlink:href="#mf6d16f3680" x="401.243946" y="56.606263" style="fill: #b85b4d; stroke: #b85b4d"/>
    </g>
   </g>
   <g id="line2d_24">
    <path d="M 47.620117 210.780989 
L 418.083176 210.780989 
" clip-path="url(#p44759ea021)" style="fill: none; stroke: #777777; stroke-width: 0.7; stroke-linecap: square"/>
   </g>
   <g id="patch_3">
    <path d="M 47.620117 291.276328 
L 47.620117 23.330625 
" style="fill: none; stroke: #000000; stroke-width: 0.8; stroke-linejoin: miter; stroke-linecap: square"/>
   </g>
   <g id="patch_4">
    <path d="M 47.620117 291.276328 
L 418.083176 291.276328 
" style="fill: none; stroke: #000000; stroke-width: 0.8; stroke-linejoin: miter; stroke-linecap: square"/>
   </g>
   <g id="text_11">
    <text style="font-size: 12px; font-family: 'Microsoft YaHei'; text-anchor: middle" x="232.851646" y="17.330625" transform="rotate(-0 232.851646 17.330625)">分阶段速率决定主要形态差异</text>
   </g>
   <g id="legend_1">
    <g id="patch_5">
     <path d="M 330.883176 287.276328 
L 412.483176 287.276328 
Q 414.083176 287.276328 414.083176 285.676328 
L 414.083176 222.975859 
Q 414.083176 221.375859 412.483176 221.375859 
L 330.883176 221.375859 
Q 329.283176 221.375859 329.283176 222.975859 
L 329.283176 285.676328 
Q 329.283176 287.276328 330.883176 287.276328 
z
" style="fill: #ffffff; opacity: 0.8; stroke: #cccccc; stroke-linejoin: miter"/>
    </g>
    <g id="line2d_25">
     <path d="M 332.483176 228.483359 
L 340.483176 228.483359 
L 348.483176 228.483359 
" style="fill: none; stroke: #d48544; stroke-width: 1.5; stroke-linecap: square"/>
     <g>
      <use xlink:href="#m201b0debec" x="340.483176" y="228.483359" style="fill: #d48544; stroke: #d48544"/>
     </g>
    </g>
    <g id="text_12">
     <text style="font-size: 8px; font-family: 'Microsoft YaHei'; text-anchor: start" x="354.883176" y="231.283359" transform="rotate(-0 354.883176 231.283359)">快速稳定型</text>
    </g>
    <g id="line2d_26">
     <path d="M 332.483176 241.201953 
L 340.483176 241.201953 
L 348.483176 241.201953 
" style="fill: none; stroke: #377abd; stroke-width: 1.5; stroke-linecap: square"/>
     <g>
      <use xlink:href="#m2076d0dda4" x="340.483176" y="241.201953" style="fill: #377abd; stroke: #377abd"/>
     </g>
    </g>
    <g id="text_13">
     <text style="font-size: 8px; font-family: 'Microsoft YaHei'; text-anchor: start" x="354.883176" y="244.001953" transform="rotate(-0 354.883176 244.001953)">渐进上升型</text>
    </g>
    <g id="line2d_27">
     <path d="M 332.483176 253.936797 
L 340.483176 253.936797 
L 348.483176 253.936797 
" style="fill: none; stroke: #56987c; stroke-width: 1.5; stroke-linecap: square"/>
     <g>
      <use xlink:href="#m8eee9b09ef" x="340.483176" y="253.936797" style="fill: #56987c; stroke: #56987c"/>
     </g>
    </g>
    <g id="text_14">
     <text style="font-size: 8px; font-family: 'Microsoft YaHei'; text-anchor: start" x="354.883176" y="256.736797" transform="rotate(-0 354.883176 256.736797)">稳定缓升型</text>
    </g>
    <g id="line2d_28">
     <path d="M 332.483176 266.600391 
L 340.483176 266.600391 
L 348.483176 266.600391 
" style="fill: none; stroke: #996db0; stroke-width: 1.5; stroke-linecap: square"/>
     <g>
      <use xlink:href="#m750ccf8a1a" x="340.483176" y="266.600391" style="fill: #996db0; stroke: #996db0"/>
     </g>
    </g>
    <g id="text_15">
     <text style="font-size: 8px; font-family: 'Microsoft YaHei'; text-anchor: start" x="354.883176" y="269.400391" transform="rotate(-0 354.883176 269.400391)">先降后升型</text>
    </g>
    <g id="line2d_29">
     <path d="M 332.483176 279.248984 
L 340.483176 279.248984 
L 348.483176 279.248984 
" style="fill: none; stroke: #b85b4d; stroke-width: 1.5; stroke-linecap: square"/>
     <g>
      <use xlink:href="#mf6d16f3680" x="340.483176" y="279.248984" style="fill: #b85b4d; stroke: #b85b4d"/>
     </g>
    </g>
    <g id="text_16">
     <text style="font-size: 8px; font-family: 'Microsoft YaHei'; text-anchor: start" x="354.883176" y="282.048984" transform="rotate(-0 354.883176 282.048984)">后期加速上升型</text>
    </g>
   </g>
  </g>
  <g id="axes_2">
   <g id="patch_6">
    <path d="M 468.537473 291.276328 
L 839.000531 291.276328 
L 839.000531 23.330625 
L 468.537473 23.330625 
z
" style="fill: #ffffff"/>
   </g>
   <g id="matplotlib.axis_3">
    <g id="xtick_4">
     <g id="line2d_30">
      <path d="M 485.376702 291.276328 
L 485.376702 23.330625 
" clip-path="url(#pfeb95a13bc)" style="fill: none; stroke: #b0b0b0; stroke-opacity: 0.2; stroke-width: 0.8; stroke-linecap: square"/>
     </g>
     <g id="line2d_31">
      <g>
       <use xlink:href="#mc0165afa2e" x="485.376702" y="291.276328" style="stroke: #000000; stroke-width: 0.8"/>
      </g>
     </g>
     <g id="text_17">
      <text style="font-size: 10px; font-family: 'Microsoft YaHei'; text-anchor: middle" x="485.376702" y="306.649766" transform="rotate(-0 485.376702 306.649766)">前期→中期</text>
     </g>
    </g>
    <g id="xtick_5">
     <g id="line2d_32">
      <path d="M 822.161301 291.276328 
L 822.161301 23.330625 
" clip-path="url(#pfeb95a13bc)" style="fill: none; stroke: #b0b0b0; stroke-opacity: 0.2; stroke-width: 0.8; stroke-linecap: square"/>
     </g>
     <g id="line2d_33">
      <g>
       <use xlink:href="#mc0165afa2e" x="822.161301" y="291.276328" style="stroke: #000000; stroke-width: 0.8"/>
      </g>
     </g>
     <g id="text_18">
      <text style="font-size: 10px; font-family: 'Microsoft YaHei'; text-anchor: middle" x="822.161301" y="306.610703" transform="rotate(-0 822.161301 306.610703)">中期→后期</text>
     </g>
    </g>
   </g>
   <g id="matplotlib.axis_4">
    <g id="ytick_7">
     <g id="line2d_34">
      <path d="M 468.537473 261.547677 
L 839.000531 261.547677 
" clip-path="url(#pfeb95a13bc)" style="fill: none; stroke: #b0b0b0; stroke-opacity: 0.2; stroke-width: 0.8; stroke-linecap: square"/>
     </g>
     <g id="line2d_35">
      <g>
       <use xlink:href="#m67184b9a67" x="468.537473" y="261.547677" style="stroke: #000000; stroke-width: 0.8"/>
      </g>
     </g>
     <g id="text_19">
      <text style="font-size: 10px; font-family: 'Microsoft YaHei'; text-anchor: end" x="461.537473" y="265.607736" transform="rotate(-0 461.537473 265.607736)">-1.0</text>
     </g>
    </g>
    <g id="ytick_8">
     <g id="line2d_36">
      <path d="M 468.537473 220.401801 
L 839.000531 220.401801 
" clip-path="url(#pfeb95a13bc)" style="fill: none; stroke: #b0b0b0; stroke-opacity: 0.2; stroke-width: 0.8; stroke-linecap: square"/>
     </g>
     <g id="line2d_37">
      <g>
       <use xlink:href="#m67184b9a67" x="468.537473" y="220.401801" style="stroke: #000000; stroke-width: 0.8"/>
      </g>
     </g>
     <g id="text_20">
      <text style="font-size: 10px; font-family: 'Microsoft YaHei'; text-anchor: end" x="461.537473" y="224.461859" transform="rotate(-0 461.537473 224.461859)">-0.5</text>
     </g>
    </g>
    <g id="ytick_9">
     <g id="line2d_38">
      <path d="M 468.537473 179.255924 
L 839.000531 179.255924 
" clip-path="url(#pfeb95a13bc)" style="fill: none; stroke: #b0b0b0; stroke-opacity: 0.2; stroke-width: 0.8; stroke-linecap: square"/>
     </g>
     <g id="line2d_39">
      <g>
       <use xlink:href="#m67184b9a67" x="468.537473" y="179.255924" style="stroke: #000000; stroke-width: 0.8"/>
      </g>
     </g>
     <g id="text_21">
      <text style="font-size: 10px; font-family: 'Microsoft YaHei'; text-anchor: end" x="461.537473" y="183.315982" transform="rotate(-0 461.537473 183.315982)">0.0</text>
     </g>
    </g>
    <g id="ytick_10">
     <g id="line2d_40">
      <path d="M 468.537473 138.110047 
L 839.000531 138.110047 
" clip-path="url(#pfeb95a13bc)" style="fill: none; stroke: #b0b0b0; stroke-opacity: 0.2; stroke-width: 0.8; stroke-linecap: square"/>
     </g>
     <g id="line2d_41">
      <g>
       <use xlink:href="#m67184b9a67" x="468.537473" y="138.110047" style="stroke: #000000; stroke-width: 0.8"/>
      </g>
     </g>
     <g id="text_22">
      <text style="font-size: 10px; font-family: 'Microsoft YaHei'; text-anchor: end" x="461.537473" y="142.170106" transform="rotate(-0 461.537473 142.170106)">0.5</text>
     </g>
    </g>
    <g id="ytick_11">
     <g id="line2d_42">
      <path d="M 468.537473 96.96417 
L 839.000531 96.96417 
" clip-path="url(#pfeb95a13bc)" style="fill: none; stroke: #b0b0b0; stroke-opacity: 0.2; stroke-width: 0.8; stroke-linecap: square"/>
     </g>
     <g id="line2d_43">
      <g>
       <use xlink:href="#m67184b9a67" x="468.537473" y="96.96417" style="stroke: #000000; stroke-width: 0.8"/>
      </g>
     </g>
     <g id="text_23">
      <text style="font-size: 10px; font-family: 'Microsoft YaHei'; text-anchor: end" x="461.537473" y="101.024229" transform="rotate(-0 461.537473 101.024229)">1.0</text>
     </g>
    </g>
    <g id="ytick_12">
     <g id="line2d_44">
      <path d="M 468.537473 55.818294 
L 839.000531 55.818294 
" clip-path="url(#pfeb95a13bc)" style="fill: none; stroke: #b0b0b0; stroke-opacity: 0.2; stroke-width: 0.8; stroke-linecap: square"/>
     </g>
     <g id="line2d_45">
      <g>
       <use xlink:href="#m67184b9a67" x="468.537473" y="55.818294" style="stroke: #000000; stroke-width: 0.8"/>
      </g>
     </g>
     <g id="text_24">
      <text style="font-size: 10px; font-family: 'Microsoft YaHei'; text-anchor: end" x="461.537473" y="59.878352" transform="rotate(-0 461.537473 59.878352)">1.5</text>
     </g>
    </g>
    <g id="text_25">
     <text style="font-size: 10px; font-family: 'Microsoft YaHei'; text-anchor: middle" x="436.540793" y="157.303477" transform="rotate(-90 436.540793 157.303477)">阶段归一化斜率的变化</text>
    </g>
   </g>
   <g id="line2d_46">
    <path d="M 485.376702 279.096978 
L 822.161301 223.797215 
" clip-path="url(#pfeb95a13bc)" style="fill: none; stroke: #d48544; stroke-width: 1.5; stroke-linecap: square"/>
    <g clip-path="url(#pfeb95a13bc)">
     <use xlink:href="#m201b0debec" x="485.376702" y="279.096978" style="fill: #d48544; stroke: #d48544"/>
     <use xlink:href="#m201b0debec" x="822.161301" y="223.797215" style="fill: #d48544; stroke: #d48544"/>
    </g>
   </g>
   <g id="line2d_47">
    <path d="M 485.376702 81.044917 
L 822.161301 266.06818 
" clip-path="url(#pfeb95a13bc)" style="fill: none; stroke: #377abd; stroke-width: 1.5; stroke-linecap: square"/>
    <g clip-path="url(#pfeb95a13bc)">
     <use xlink:href="#m2076d0dda4" x="485.376702" y="81.044917" style="fill: #377abd; stroke: #377abd"/>
     <use xlink:href="#m2076d0dda4" x="822.161301" y="266.06818" style="fill: #377abd; stroke: #377abd"/>
    </g>
   </g>
   <g id="line2d_48">
    <path d="M 485.376702 181.105168 
L 822.161301 180.179988 
" clip-path="url(#pfeb95a13bc)" style="fill: none; stroke: #56987c; stroke-width: 1.5; stroke-linecap: square"/>
    <g clip-path="url(#pfeb95a13bc)">
     <use xlink:href="#m8eee9b09ef" x="485.376702" y="181.105168" style="fill: #56987c; stroke: #56987c"/>
     <use xlink:href="#m8eee9b09ef" x="822.161301" y="180.179988" style="fill: #56987c; stroke: #56987c"/>
    </g>
   </g>
   <g id="line2d_49">
    <path d="M 485.376702 35.509975 
L 822.161301 74.512106 
" clip-path="url(#pfeb95a13bc)" style="fill: none; stroke: #996db0; stroke-width: 1.5; stroke-linecap: square"/>
    <g clip-path="url(#pfeb95a13bc)">
     <use xlink:href="#m750ccf8a1a" x="485.376702" y="35.509975" style="fill: #996db0; stroke: #996db0"/>
     <use xlink:href="#m750ccf8a1a" x="822.161301" y="74.512106" style="fill: #996db0; stroke: #996db0"/>
    </g>
   </g>
   <g id="line2d_50">
    <path d="M 485.376702 104.376958 
L 822.161301 111.91843 
" clip-path="url(#pfeb95a13bc)" style="fill: none; stroke: #b85b4d; stroke-width: 1.5; stroke-linecap: square"/>
    <g clip-path="url(#pfeb95a13bc)">
     <use xlink:href="#mf6d16f3680" x="485.376702" y="104.376958" style="fill: #b85b4d; stroke: #b85b4d"/>
     <use xlink:href="#mf6d16f3680" x="822.161301" y="111.91843" style="fill: #b85b4d; stroke: #b85b4d"/>
    </g>
   </g>
   <g id="line2d_51">
    <path d="M 468.537473 179.255924 
L 839.000531 179.255924 
" clip-path="url(#pfeb95a13bc)" style="fill: none; stroke: #777777; stroke-width: 0.7; stroke-linecap: square"/>
   </g>
   <g id="patch_7">
    <path d="M 468.537473 291.276328 
L 468.537473 23.330625 
" style="fill: none; stroke: #000000; stroke-width: 0.8; stroke-linejoin: miter; stroke-linecap: square"/>
   </g>
   <g id="patch_8">
    <path d="M 468.537473 291.276328 
L 839.000531 291.276328 
" style="fill: none; stroke: #000000; stroke-width: 0.8; stroke-linejoin: miter; stroke-linecap: square"/>
   </g>
   <g id="text_26">
    <text style="font-size: 12px; font-family: 'Microsoft YaHei'; text-anchor: middle" x="653.769002" y="17.330625" transform="rotate(-0 653.769002 17.330625)">加速与减速趋势（描述性，不是SHAP）</text>
   </g>
  </g>
 </g>
 <defs>
  <clipPath id="p44759ea021">
   <rect x="47.620117" y="23.330625" width="370.463058" height="267.945703"/>
  </clipPath>
  <clipPath id="pfeb95a13bc">
   <rect x="468.537473" y="23.330625" width="370.463058" height="267.945703"/>
  </clipPath>
 </defs>
</svg>
